<svg xmlns="http://www.w3.org/2000/svg" xmlns:xlink="http://www.w3.org/1999/xlink" width="1920" zoomAndPan="magnify" viewBox="0 0 1440 1439.999935" height="1920" preserveAspectRatio="xMidYMid meet" version="1.0"><defs><clipPath id="cbf7af8085"><path d="M 39.085938 39.085938 L 1401 39.085938 L 1401 1401 L 39.085938 1401 Z M 39.085938 39.085938 " clip-rule="nonzero"/></clipPath><clipPath id="62d1dc4c46"><path d="M 448.539062 189 L 991.539062 189 L 991.539062 1251.65625 L 448.539062 1251.65625 Z M 448.539062 189 " clip-rule="nonzero"/></clipPath></defs><g clip-path="url(#cbf7af8085)"><path fill="#1f5137" d="M 719.941406 39.085938 C 907.964844 39.085938 1078.175781 115.292969 1201.382812 238.5 C 1324.609375 361.726562 1400.816406 531.9375 1400.816406 719.941406 C 1400.816406 907.945312 1324.609375 1078.175781 1201.382812 1201.382812 C 1078.175781 1324.609375 907.964844 1400.816406 719.941406 1400.816406 C 531.9375 1400.816406 361.726562 1324.609375 238.5 1201.382812 C 115.292969 1078.175781 39.085938 907.945312 39.085938 719.941406 C 39.085938 531.9375 115.292969 361.726562 238.5 238.5 C 361.726562 115.292969 531.9375 39.085938 719.941406 39.085938 Z M 1147.898438 292.003906 C 1038.386719 182.476562 887.074219 114.734375 719.941406 114.734375 C 552.832031 114.734375 401.515625 182.476562 292.003906 292.003906 C 182.476562 401.515625 114.734375 552.8125 114.734375 719.941406 C 114.734375 887.074219 182.476562 1038.386719 292.003906 1147.898438 C 401.515625 1257.425781 552.832031 1325.167969 719.941406 1325.167969 C 887.074219 1325.167969 1038.386719 1257.425781 1147.898438 1147.898438 C 1257.425781 1038.386719 1325.167969 887.074219 1325.167969 719.941406 C 1325.167969 552.8125 1257.425781 401.515625 1147.898438 292.003906 " fill-opacity="1" fill-rule="nonzero"/></g><path fill="#1f5137" d="M 543.636719 408.691406 C 546.191406 416.332031 553.519531 394.492188 556.097656 404.96875 C 560.042969 417.238281 540.308594 415.601562 543.71875 427.367188 C 545.046875 441.324219 546.839844 455.261719 546.566406 469.328125 C 547.371094 479.570312 554.269531 487.480469 559.070312 495.65625 C 567.363281 501.683594 579.296875 497.128906 586.195312 490.804688 C 593.949219 484.390625 594.722656 473.59375 602.425781 466.878906 C 608.289062 457.53125 612.324219 447.445312 619.449219 438.695312 C 623.375 427.363281 630.691406 416.8125 631.964844 404.304688 C 633.363281 394.050781 636.800781 384.101562 636.425781 373.628906 C 637.4375 361.257812 637.460938 348.71875 634.914062 336.53125 C 636.203125 325.417969 647.800781 319.449219 654.34375 311.496094 C 658.046875 306.933594 660.027344 307.484375 663.867188 302.101562 C 674.183594 296.640625 678.742188 288.160156 688.925781 283.210938 C 704.347656 272.824219 721.105469 263.75 739.46875 259.964844 C 748.003906 256.492188 758.097656 258.191406 766.957031 257.109375 C 775.441406 260.257812 785.300781 260.183594 792.554688 265.800781 C 800.269531 271.277344 807.273438 277.664062 814.292969 283.984375 C 817.609375 293.125 825.457031 299.726562 828.519531 309.050781 C 836.507812 324.746094 841.570312 341.683594 846.242188 358.59375 C 852.980469 386.03125 856.824219 414.484375 854.011719 442.726562 C 852.96875 454.292969 849.75 465.574219 847.273438 476.886719 C 835.414062 517.785156 808.152344 551.964844 778.777344 581.878906 C 763.042969 597.296875 745.878906 611.179688 729.234375 625.59375 C 700.34375 648.183594 674.390625 674.324219 644.777344 696.027344 C 626.152344 713.398438 605.53125 728.480469 587.0625 746.046875 C 566.664062 764.425781 547.753906 784.433594 530.132812 805.445312 C 521.675781 814.410156 515.441406 825.175781 507.539062 834.613281 C 496.335938 850.753906 486.375 867.773438 477.070312 885.0625 C 464.660156 912.328125 454.085938 940.953125 451.890625 971.085938 C 449.066406 999.214844 453.175781 1027.480469 460.449219 1054.648438 C 464.949219 1076.980469 473.398438 1098.265625 484.417969 1118.15625 C 490.539062 1128.167969 494.953125 1139.320312 501.996094 1148.703125 C 507.441406 1154.136719 510.242188 1162.382812 515.800781 1166.9375 C 520.222656 1170.578125 524.421875 1175.492188 527.652344 1180.070312 C 536.25 1183.566406 539.867188 1194.441406 548.683594 1197.90625 C 558.601562 1209.242188 572.605469 1216.300781 586.464844 1221.628906 C 594.335938 1224.296875 600.050781 1231.316406 609.5 1231.285156 C 618.449219 1233.644531 625.46875 1235.445312 634.421875 1238.515625 C 638.996094 1239.449219 645.042969 1239.683594 645.25 1241.140625 C 649.566406 1237.828125 645.253906 1244.96875 648.859375 1241.480469 C 657.902344 1245.535156 668.871094 1243.484375 678.226562 1247.347656 C 688.632812 1248.574219 699.304688 1248.632812 709.492188 1248.945312 C 717.832031 1249.109375 727.660156 1250.332031 737.148438 1249.414062 C 747.859375 1248.554688 755.871094 1249.828125 766.257812 1246.523438 C 773.277344 1250.078125 782.414062 1245.660156 789.066406 1243.304688 C 797.757812 1243.210938 805.03125 1240.324219 813.523438 1238.613281 C 823.199219 1237.585938 831.273438 1232.105469 840.515625 1229.375 C 848.242188 1225.804688 856.6875 1223.363281 863.875 1218.707031 C 874.128906 1214.277344 884.410156 1208.222656 893.136719 1201.148438 C 900.265625 1197.082031 907.515625 1192.980469 912.542969 1186.261719 C 920.066406 1179.457031 927.074219 1172.601562 934.75 1165.203125 C 940.167969 1156.273438 948.890625 1149.585938 953.214844 1139.988281 C 958.316406 1130.929688 964.242188 1122.058594 967.707031 1112.089844 C 972.90625 1099.898438 978.429688 1087.769531 980.746094 1074.632812 C 982.527344 1067.265625 984.339844 1059.90625 986.109375 1052.535156 C 987.789062 1043.003906 989.238281 1032.964844 989.199219 1022.765625 C 989.785156 1012.726562 991.449219 1002.828125 989.972656 992.710938 C 989.75 982.199219 986.914062 971.8125 985.863281 961.347656 C 983.71875 949.089844 981.578125 936.753906 976.21875 925.40625 C 971.046875 911.914062 966.484375 898.042969 957.886719 886.234375 C 952.113281 875.9375 946.734375 865.316406 938.703125 856.503906 C 928.667969 843.101562 915.84375 832.28125 903.894531 820.679688 C 882.390625 805.492188 859.945312 791.050781 834.664062 782.980469 C 808.148438 772.917969 778.441406 771.777344 751.351562 780.265625 C 722.535156 789.804688 695.160156 803.875 670.5 821.550781 C 641.0625 844.253906 622.214844 879.351562 618.132812 916.179688 C 618.402344 922.863281 613.984375 937.699219 622.117188 938.910156 C 628.03125 931.714844 629.894531 921.890625 635.152344 914.15625 C 641.125 905.445312 646.542969 897.226562 654.574219 890.1875 C 663.34375 883.402344 670.03125 876.234375 679.625 871.15625 C 690.554688 867.710938 700.304688 861.15625 711.5 858.710938 C 723.332031 857.390625 734.800781 852.917969 746.859375 853.929688 C 744.28125 855.992188 754.996094 851.613281 753.476562 854.867188 C 762.15625 853.605469 770.511719 853.417969 779.136719 854.679688 C 797.421875 854.429688 815.109375 860.4375 831.914062 867.054688 C 836.882812 872.644531 844.933594 872.800781 848.46875 876.691406 C 850.84375 880.785156 857.738281 879.234375 856.578125 884.742188 C 865.859375 884.9375 867.558594 897.589844 875.457031 902.347656 C 881.878906 911.152344 887.847656 920.566406 892.859375 930.304688 C 896.300781 940.214844 901.78125 949.390625 903.28125 959.90625 C 909.011719 981.433594 911.503906 1004.195312 907.867188 1026.28125 C 905.855469 1052.082031 896.183594 1076.914062 882.78125 1098.882812 C 871.003906 1117.933594 853.921875 1133.269531 835.078125 1145.09375 C 826.878906 1147.621094 819.921875 1152.609375 811.65625 1155.058594 C 791.609375 1160.355469 771.566406 1166.351562 750.71875 1167.429688 C 730.90625 1168.648438 710.777344 1168.597656 691.203125 1165.117188 L 657.257812 1157.84375 C 649.027344 1152.511719 639.117188 1150.410156 630.652344 1145.410156 C 615.109375 1137.886719 600.230469 1128.296875 587.910156 1116.21875 C 576.476562 1103.039062 562.242188 1091.574219 555.429688 1075.011719 C 549.996094 1064.726562 546.078125 1053.695312 543.160156 1042.496094 C 540.042969 1033.273438 539.21875 1022.980469 539.117188 1013.550781 C 538.109375 1007.265625 537.660156 999.019531 538.261719 994.285156 C 540.210938 985.058594 539.953125 973.609375 542.886719 963.839844 C 547.335938 944.984375 551.875 925.902344 560.945312 908.644531 C 566.539062 895.304688 574.605469 883.191406 581.628906 870.582031 C 585.574219 863.988281 589.863281 857.5 595.367188 852.082031 C 598.785156 844.125 605.835938 838.625 609.914062 831.273438 C 619.289062 823.757812 625.820312 813.140625 634.910156 805.183594 C 647.246094 792.972656 659.996094 781.15625 673.074219 769.757812 C 681.070312 762.5 691.296875 758.832031 698.804688 751.175781 C 703.753906 743.734375 712.90625 743.84375 719.039062 737.773438 C 728.089844 731.832031 736.699219 724.695312 747.367188 721.945312 C 757.191406 718.542969 765.929688 713.269531 775.28125 708.976562 C 783.152344 703.367188 790.078125 700.984375 798.003906 695.085938 C 804.304688 690.390625 810.929688 686.90625 817.148438 680.996094 C 826.183594 674.046875 835.125 666.835938 842.894531 658.554688 C 851.167969 656.175781 853.363281 644.402344 861.296875 641.351562 C 863.179688 637.960938 864.933594 634.910156 866.917969 635.6875 C 866.121094 629.820312 871.695312 634.335938 872.792969 628.347656 C 881.449219 619.667969 888.125 609.59375 895.339844 599.777344 C 902.875 591.109375 908.15625 581.332031 913.855469 571.53125 C 921.054688 563.402344 922.84375 552.222656 929.640625 543.859375 C 934.132812 534.832031 936.554688 524.929688 940.523438 515.660156 C 944.949219 504.664062 945.511719 492.785156 950.132812 481.941406 C 951.5625 472.613281 954.476562 463.636719 953.054688 454.136719 C 952.011719 448.796875 956.691406 438.722656 954.667969 437.925781 C 955.027344 429.28125 955.953125 421.105469 953.917969 411.285156 C 951.859375 400.820312 952.0625 389.949219 948.574219 379.707031 C 945.75 370.722656 945.101562 358.769531 939.5625 352.128906 C 936.480469 344.429688 934.75 336.375 931.363281 328.761719 C 921.273438 310.296875 912.023438 291.179688 898.828125 274.636719 C 887.21875 259.472656 872.851562 246.71875 858.316406 234.460938 C 846.765625 225.753906 833.558594 219.585938 820.703125 213.085938 C 781.675781 195.203125 736.132812 188.601562 694.445312 200.613281 C 648.320312 214.9375 610.9375 249.421875 585.785156 289.875 C 572.496094 309.742188 562.511719 331.519531 552.324219 353.050781 C 545.179688 367.652344 535.042969 382.691406 537.292969 399.710938 C 537.910156 403.453125 540.0625 407.101562 543.636719 408.6875 Z M 816.140625 290.449219 C 815.160156 292.9375 818.472656 289.324219 816.140625 290.449219 Z M 954.699219 420.699219 C 953.722656 423.183594 957.03125 419.574219 954.699219 420.699219 Z M 794.894531 425.316406 L 795.296875 426.921875 Z M 765.335938 853.933594 C 764.355469 856.417969 767.664062 852.808594 765.335938 853.933594 Z M 824.453125 865.015625 C 823.476562 867.503906 826.785156 863.894531 824.453125 865.015625 Z M 636.933594 912.128906 C 635.957031 914.613281 639.265625 911.003906 636.933594 912.128906 Z M 583.355469 976.789062 L 584.5625 975.585938 Z M 485.441406 1122.742188 C 484.460938 1125.226562 487.773438 1121.617188 485.441406 1122.742188 Z M 828.148438 1234.515625 C 827.171875 1237 830.480469 1233.390625 828.148438 1234.515625 Z M 652.636719 1242.828125 C 651.660156 1245.3125 654.96875 1241.703125 652.636719 1242.828125 Z M 705.289062 1249.292969 C 704.3125 1251.78125 707.621094 1248.167969 705.289062 1249.292969 Z M 715.453125 1249.292969 C 714.472656 1251.78125 717.785156 1248.167969 715.453125 1249.292969 Z M 715.453125 1249.292969 " fill-opacity="1" fill-rule="nonzero"/><g clip-path="url(#62d1dc4c46)"><path stroke-linecap="butt" transform="matrix(0.923741, 0, 0, 0.923741, 421.489988, -99.774328)" fill="none" stroke-linejoin="miter" d="M 132.230533 550.442035 C 134.996122 558.71343 142.929219 535.070602 145.720181 546.412055 C 149.991198 559.694495 128.627655 557.922658 132.319336 570.659592 C 133.757104 585.768843 135.698091 600.856951 135.40208 616.084607 C 136.273199 627.172337 143.741135 635.735514 148.938244 644.586246 C 157.915838 651.111176 170.834607 646.180477 178.302544 639.334163 C 186.696573 632.390589 187.533861 620.70238 195.872916 613.433193 C 202.22024 603.313843 206.588518 592.395263 214.301721 582.922908 C 218.551594 570.655363 226.472005 559.233564 227.850571 545.693171 C 229.364456 534.592755 233.085738 523.82218 232.67978 512.484956 C 233.775021 499.092569 233.800394 485.518346 231.043262 472.324709 C 232.438743 460.293973 244.993841 453.832474 252.076964 445.22278 C 256.0858 440.283624 258.229766 440.879874 262.386607 435.052685 C 273.554682 429.140921 278.48961 419.960348 289.513909 414.602548 C 306.208934 403.358355 324.350185 393.535016 344.229443 389.437377 C 353.469218 385.678036 364.396256 387.517533 373.987015 386.346175 C 383.171816 389.754531 393.84513 389.674185 401.697881 395.755099 C 410.049623 401.683778 417.631735 408.597751 425.230762 415.439836 C 428.820954 425.335064 437.316472 432.481617 440.631796 442.575595 C 449.279549 459.566631 454.759983 477.902404 459.817543 496.208575 C 467.112102 525.911173 471.273172 556.713241 468.228487 587.286957 C 467.099416 599.808226 463.614943 612.020798 460.933928 624.267199 C 448.095504 668.542 418.583199 705.543386 386.783151 737.926998 C 369.749828 754.617795 351.168789 769.646701 333.150171 785.250713 C 301.874486 809.705458 273.778805 838.004118 241.720805 861.49894 C 221.558221 880.304102 199.234756 896.631227 179.241322 915.647825 C 157.158895 935.543999 136.687614 957.203553 117.611814 979.94989 C 108.456614 989.654825 101.707561 1001.309205 93.152841 1011.525816 C 81.024844 1028.998927 70.241583 1047.423503 60.168749 1066.139861 C 46.734074 1095.656395 35.286903 1126.644527 32.910356 1159.264948 C 29.852985 1189.716032 34.301608 1220.31512 42.175503 1249.725936 C 47.047 1273.901584 56.193743 1296.943933 68.122989 1318.476625 C 74.749409 1329.314859 79.527874 1341.387883 87.152273 1351.545292 C 93.047123 1357.427455 96.079122 1366.354304 102.096604 1371.285002 C 106.883527 1375.226179 111.429411 1380.545921 114.926571 1385.501992 C 124.234005 1389.286705 128.149809 1401.059489 137.694052 1404.810372 C 148.430797 1417.082146 163.590793 1424.723461 178.594326 1430.491448 C 187.115217 1433.379671 193.301849 1440.978698 203.531146 1440.944868 C 213.219166 1443.499021 220.818193 1445.448465 230.510442 1448.772247 C 235.462285 1449.782914 242.008358 1450.036637 242.232481 1451.613954 C 246.905227 1448.027991 242.23671 1455.758109 246.139827 1451.981853 C 255.929337 1456.371275 267.80361 1454.151191 277.931418 1458.333405 C 289.196754 1459.661226 300.749644 1459.724657 311.778171 1460.062956 C 320.806509 1460.240562 331.445993 1461.564155 341.717578 1460.570403 C 353.312755 1459.640083 361.98588 1461.018649 373.230072 1457.441143 C 380.8291 1461.289287 390.720099 1456.506594 397.921626 1453.95667 C 407.330549 1453.85518 415.204444 1450.730149 424.397703 1448.877965 C 434.872266 1447.765809 443.613051 1441.832902 453.618226 1438.877019 C 461.982653 1435.01196 471.125167 1432.369004 478.90603 1427.328358 C 490.006445 1422.532979 501.136462 1415.978448 510.583445 1408.320218 C 518.300876 1403.91811 526.149399 1399.477944 531.591774 1392.204529 C 539.736308 1384.838081 547.322649 1377.416661 555.632103 1369.407446 C 561.497351 1359.74057 570.940105 1352.500985 575.621309 1342.110996 C 581.14403 1332.304571 587.559013 1322.701126 591.309896 1311.909407 C 596.938336 1298.711542 602.917759 1285.581336 605.425396 1271.360118 C 607.353697 1263.384733 609.315828 1255.417806 611.231442 1247.438193 C 613.049796 1237.120092 614.618655 1226.252257 614.576367 1215.211043 C 615.210677 1204.343208 617.012116 1193.627607 615.413656 1182.675196 C 615.172618 1171.295685 612.102561 1160.051492 610.965032 1148.722725 C 608.64346 1135.452971 606.326116 1122.098642 600.524298 1109.814182 C 594.92546 1095.208149 589.986304 1080.19193 580.67887 1067.40848 C 574.428807 1056.261548 568.605846 1044.763632 559.911578 1035.223617 C 549.047971 1020.714846 535.165051 1009.001264 522.229366 996.441937 C 498.950209 980.000635 474.651928 964.367021 447.283588 955.630465 C 418.578971 944.737257 386.41948 943.502468 357.093239 952.691498 C 325.8979 963.018056 296.262961 978.249941 269.56699 997.384943 C 237.699283 1021.962321 217.295661 1059.957458 212.876639 1099.825922 C 213.168421 1107.061279 208.385728 1123.121995 217.189943 1124.432901 C 223.59224 1116.643581 225.609344 1106.008325 231.301214 1097.63544 C 237.766942 1088.205373 243.63219 1079.308125 252.326459 1071.687954 C 261.819957 1064.342651 269.059543 1056.582932 279.445303 1051.085583 C 291.277289 1047.355843 301.832199 1040.260035 313.951738 1037.61285 C 326.760561 1036.183539 339.176111 1031.341643 352.2302 1032.436885 C 349.439238 1034.669654 361.038644 1029.929248 359.393668 1033.45178 C 368.789906 1032.0859 377.835159 1031.882921 387.172194 1033.248801 C 406.966879 1032.978162 426.114567 1039.481948 444.306563 1046.645417 C 449.685507 1052.696729 458.400919 1052.865878 462.227919 1057.077693 C 464.798987 1061.509402 472.262695 1059.830596 471.006762 1065.793105 C 481.054224 1066.004542 482.893722 1079.701397 491.444214 1084.85199 C 498.396245 1094.383547 504.857744 1104.574786 510.283205 1115.117009 C 514.008716 1125.845297 519.941624 1135.778583 521.565456 1147.162324 C 527.769002 1170.466854 530.466932 1195.107662 526.529985 1219.0169 C 524.352189 1246.94766 513.881854 1273.829696 499.373082 1297.612072 C 486.623462 1318.235587 468.131226 1334.83758 447.731834 1347.637945 C 438.85573 1350.373934 431.324362 1355.774022 422.37637 1358.425435 C 400.674529 1364.159593 378.976916 1370.650693 356.408185 1371.817822 C 334.960068 1373.137186 313.169423 1373.082213 291.979258 1369.314414 L 255.231596 1361.440519 C 246.321663 1355.668303 235.593375 1353.393247 226.429718 1347.980473 C 209.603602 1339.835939 193.49637 1329.454407 180.158956 1316.379175 C 167.781464 1302.111441 152.371973 1289.700119 144.997068 1271.770304 C 139.114905 1260.636059 134.873489 1248.694126 131.714628 1236.570358 C 128.340102 1226.586327 127.44784 1215.443624 127.337893 1205.23547 C 126.24688 1198.431444 125.760576 1189.504595 126.411801 1184.379375 C 128.521937 1174.391115 128.242841 1161.996708 131.418617 1151.420655 C 136.23514 1131.008576 141.148924 1110.351231 150.968035 1091.668703 C 157.023576 1077.22759 165.755903 1064.114299 173.359159 1050.46396 C 177.630176 1043.325864 182.273321 1036.301944 188.231602 1030.436695 C 191.93174 1021.822773 199.564597 1015.868721 203.979391 1007.910252 C 214.128343 999.774176 221.198779 988.280488 231.039033 979.666565 C 244.393362 966.447556 258.195936 953.655649 272.353723 941.316215 C 281.009933 933.459235 292.080748 929.488458 300.208366 921.200147 C 305.566167 913.144417 315.474081 913.262822 322.113187 906.691376 C 331.911154 900.259478 341.231274 892.533588 352.779935 889.556562 C 363.41519 885.873339 372.874859 880.164554 382.998438 875.51718 C 391.519329 869.444724 399.016867 866.865198 407.596959 860.479816 C 414.4179 855.396883 421.589826 851.624856 428.321964 845.226788 C 438.103016 837.703878 447.782578 829.897643 456.193522 820.932735 C 465.149972 818.357439 467.526518 805.612047 476.115068 802.309409 C 478.153316 798.638872 480.052015 795.336234 482.20021 796.177751 C 481.337549 789.826199 487.371947 794.714611 488.56022 788.231968 C 497.931085 778.83573 505.157984 767.929836 512.968448 757.303038 C 521.125668 747.919487 526.842911 737.334976 533.012627 726.725093 C 540.806176 717.925107 542.742935 705.822482 550.100924 696.768771 C 554.963964 686.996177 557.585776 676.276347 561.882166 666.241571 C 566.673316 654.337697 567.282254 641.478129 572.284841 629.739176 C 573.832556 619.640969 576.987188 609.923348 575.447931 599.639077 C 574.31886 593.858403 579.384878 582.952509 577.194396 582.089848 C 577.583439 572.731669 578.585648 563.880938 576.38248 553.249911 C 574.153939 541.921144 574.373833 530.152589 570.597578 519.064859 C 567.540206 509.338781 566.838237 496.398868 560.841898 489.210027 C 557.50543 480.875201 555.632103 472.15556 551.965794 463.913766 C 541.042985 443.92456 531.029353 423.229156 516.744704 405.320486 C 504.176919 388.904557 488.623651 375.097754 472.888547 361.828 C 460.384193 352.402161 446.086858 345.724997 432.170108 338.68839 C 389.920869 319.329265 340.618108 312.182712 295.489104 325.186056 C 245.556263 340.692808 205.087318 378.024035 177.858527 421.816761 C 163.472389 443.32408 152.663755 466.899249 141.635228 490.208007 C 133.900881 506.014999 122.927327 522.295609 125.363076 540.720185 C 126.031215 544.771308 128.361245 548.720941 132.230533 550.437806 Z M 427.230952 422.438384 C 426.169541 425.132085 429.755503 421.22051 427.230952 422.438384 Z M 577.228226 563.44115 C 576.171044 566.130622 579.752778 562.223276 577.228226 563.44115 Z M 404.23089 568.439508 L 404.66645 570.177516 Z M 372.232092 1032.441113 C 371.170681 1035.130585 374.752415 1031.223239 372.232092 1032.441113 Z M 436.229689 1044.43802 C 435.172506 1047.131721 438.75424 1043.224374 436.229689 1044.43802 Z M 233.229515 1095.44073 C 232.172333 1098.130202 235.754067 1094.222855 233.229515 1095.44073 Z M 175.228257 1165.438894 L 176.534935 1164.136445 Z M 69.230917 1323.441154 C 68.169505 1326.130626 71.755468 1322.223279 69.230917 1323.441154 Z M 440.230067 1444.442028 C 439.172885 1447.1315 442.754619 1443.224154 440.230067 1444.442028 Z M 250.229009 1453.440765 C 249.171826 1456.130237 252.753561 1452.222891 250.229009 1453.440765 Z M 307.228058 1460.439313 C 306.170875 1463.133013 309.752609 1459.221438 307.228058 1460.439313 Z M 318.231213 1460.439313 C 317.169801 1463.133013 320.755764 1459.221438 318.231213 1460.439313 Z M 318.231213 1460.439313 " stroke="#000000" stroke-width="1" stroke-opacity="1" stroke-miterlimit="4"/></g></svg>