<svg xmlns="http://www.w3.org/2000/svg" xmlns:xlink="http://www.w3.org/1999/xlink" width="1920" zoomAndPan="magnify" viewBox="0 0 1440 1439.999935" height="1920" preserveAspectRatio="xMidYMid meet" version="1.0"><path fill="#1f5137" d="M 720 0 C 708.214844 0 696.441406 0.289062 684.671875 0.867188 C 672.902344 1.445312 661.152344 2.3125 649.425781 3.46875 C 637.699219 4.621094 626.011719 6.0625 614.355469 7.792969 C 602.699219 9.523438 591.09375 11.535156 579.535156 13.835938 C 567.976562 16.132812 556.484375 18.714844 545.054688 21.578125 C 533.625 24.441406 522.269531 27.582031 510.996094 31.003906 C 499.71875 34.421875 488.535156 38.117188 477.4375 42.089844 C 466.34375 46.058594 455.355469 50.296875 444.46875 54.808594 C 433.582031 59.316406 422.8125 64.089844 412.160156 69.128906 C 401.507812 74.164062 390.988281 79.460938 380.59375 85.015625 C 370.203125 90.570312 359.953125 96.378906 349.847656 102.433594 C 339.738281 108.492188 329.785156 114.796875 319.988281 121.34375 C 310.191406 127.886719 300.5625 134.671875 291.097656 141.691406 C 281.632812 148.710938 272.34375 155.957031 263.238281 163.433594 C 254.128906 170.90625 245.207031 178.601562 236.476562 186.515625 C 227.746094 194.429688 219.214844 202.550781 210.882812 210.882812 C 202.550781 219.214844 194.429688 227.746094 186.515625 236.476562 C 178.601562 245.207031 170.90625 254.128906 163.433594 263.238281 C 155.957031 272.34375 148.710938 281.632812 141.691406 291.097656 C 134.671875 300.5625 127.886719 310.191406 121.34375 319.988281 C 114.796875 329.785156 108.492188 339.738281 102.433594 349.847656 C 96.378906 359.953125 90.570312 370.203125 85.015625 380.59375 C 79.460938 390.984375 74.164062 401.507812 69.128906 412.160156 C 64.089844 422.8125 59.316406 433.582031 54.808594 444.46875 C 50.296875 455.355469 46.058594 466.34375 42.089844 477.4375 C 38.117188 488.535156 34.421875 499.71875 31.003906 510.996094 C 27.582031 522.269531 24.441406 533.625 21.578125 545.054688 C 18.714844 556.484375 16.132812 567.976562 13.835938 579.535156 C 11.535156 591.089844 9.523438 602.699219 7.792969 614.355469 C 6.0625 626.011719 4.621094 637.699219 3.46875 649.425781 C 2.3125 661.152344 1.445312 672.902344 0.867188 684.671875 C 0.289062 696.441406 0 708.214844 0 720 C 0 731.78125 0.289062 743.558594 0.867188 755.328125 C 1.445312 767.097656 2.3125 778.84375 3.46875 790.574219 C 4.621094 802.300781 6.0625 813.988281 7.792969 825.644531 C 9.523438 837.300781 11.535156 848.90625 13.835938 860.464844 C 16.132812 872.023438 18.714844 883.515625 21.578125 894.945312 C 24.441406 906.375 27.582031 917.730469 31.003906 929.003906 C 34.421875 940.28125 38.117188 951.464844 42.089844 962.5625 C 46.058594 973.65625 50.296875 984.644531 54.808594 995.53125 C 59.316406 1006.417969 64.089844 1017.1875 69.128906 1027.839844 C 74.164062 1038.492188 79.460938 1049.011719 85.015625 1059.40625 C 90.570312 1069.796875 96.378906 1080.046875 102.433594 1090.152344 C 108.492188 1100.261719 114.796875 1110.210938 121.34375 1120.011719 C 127.886719 1129.808594 134.671875 1139.4375 141.691406 1148.902344 C 148.710938 1158.367188 155.957031 1167.65625 163.433594 1176.761719 C 170.90625 1185.871094 178.601562 1194.792969 186.515625 1203.523438 C 194.429688 1212.253906 202.550781 1220.785156 210.882812 1229.117188 C 219.214844 1237.449219 227.746094 1245.570312 236.476562 1253.484375 C 245.207031 1261.398438 254.128906 1269.09375 263.238281 1276.566406 C 272.34375 1284.042969 281.632812 1291.289062 291.097656 1298.308594 C 300.5625 1305.328125 310.191406 1312.113281 319.988281 1318.65625 C 329.785156 1325.203125 339.738281 1331.507812 349.847656 1337.5625 C 359.953125 1343.621094 370.203125 1349.429688 380.59375 1354.984375 C 390.988281 1360.539062 401.507812 1365.832031 412.160156 1370.871094 C 422.8125 1375.910156 433.582031 1380.683594 444.46875 1385.191406 C 455.355469 1389.703125 466.34375 1393.941406 477.4375 1397.910156 C 488.535156 1401.882812 499.71875 1405.578125 510.996094 1408.996094 C 522.269531 1412.417969 533.625 1415.558594 545.054688 1418.421875 C 556.484375 1421.285156 567.976562 1423.867188 579.535156 1426.164062 C 591.09375 1428.464844 602.699219 1430.476562 614.355469 1432.207031 C 626.011719 1433.9375 637.699219 1435.378906 649.425781 1436.53125 C 661.152344 1437.6875 672.902344 1438.554688 684.671875 1439.132812 C 696.441406 1439.710938 708.214844 1440 720 1440 C 731.785156 1440 743.558594 1439.710938 755.328125 1439.132812 C 767.097656 1438.554688 778.847656 1437.6875 790.574219 1436.53125 C 802.300781 1435.378906 813.988281 1433.9375 825.644531 1432.207031 C 837.300781 1430.476562 848.90625 1428.464844 860.464844 1426.164062 C 872.023438 1423.867188 883.515625 1421.285156 894.945312 1418.421875 C 906.375 1415.558594 917.730469 1412.417969 929.003906 1408.996094 C 940.28125 1405.574219 951.464844 1401.882812 962.5625 1397.910156 C 973.65625 1393.941406 984.644531 1389.703125 995.53125 1385.191406 C 1006.417969 1380.683594 1017.1875 1375.910156 1027.839844 1370.871094 C 1038.492188 1365.835938 1049.011719 1360.539062 1059.40625 1354.984375 C 1069.796875 1349.429688 1080.046875 1343.621094 1090.152344 1337.5625 C 1100.261719 1331.507812 1110.214844 1325.203125 1120.011719 1318.65625 C 1129.808594 1312.113281 1139.4375 1305.328125 1148.902344 1298.308594 C 1158.367188 1291.289062 1167.65625 1284.042969 1176.761719 1276.566406 C 1185.871094 1269.09375 1194.792969 1261.398438 1203.523438 1253.484375 C 1212.253906 1245.570312 1220.785156 1237.449219 1229.117188 1229.117188 C 1237.449219 1220.785156 1245.570312 1212.253906 1253.484375 1203.523438 C 1261.398438 1194.792969 1269.09375 1185.871094 1276.566406 1176.761719 C 1284.042969 1167.65625 1291.289062 1158.367188 1298.308594 1148.902344 C 1305.328125 1139.4375 1312.113281 1129.808594 1318.65625 1120.011719 C 1325.203125 1110.210938 1331.507812 1100.261719 1337.5625 1090.152344 C 1343.621094 1080.046875 1349.429688 1069.796875 1354.984375 1059.40625 C 1360.539062 1049.011719 1365.832031 1038.492188 1370.871094 1027.839844 C 1375.910156 1017.1875 1380.683594 1006.417969 1385.191406 995.53125 C 1389.703125 984.644531 1393.941406 973.65625 1397.910156 962.5625 C 1401.882812 951.464844 1405.578125 940.28125 1408.996094 929.003906 C 1412.417969 917.730469 1415.558594 906.375 1418.421875 894.945312 C 1421.285156 883.515625 1423.867188 872.023438 1426.164062 860.464844 C 1428.464844 848.90625 1430.476562 837.300781 1432.207031 825.644531 C 1433.9375 813.988281 1435.378906 802.300781 1436.53125 790.574219 C 1437.6875 778.84375 1438.554688 767.097656 1439.132812 755.328125 C 1439.710938 743.558594 1440 731.78125 1440 720 C 1440 708.21875 1439.707031 696.441406 1439.128906 684.671875 C 1438.550781 672.902344 1437.679688 661.15625 1436.523438 649.429688 C 1435.367188 637.703125 1433.925781 626.015625 1432.195312 614.359375 C 1430.464844 602.703125 1428.449219 591.097656 1426.148438 579.542969 C 1423.851562 567.984375 1421.269531 556.492188 1418.40625 545.0625 C 1415.539062 533.632812 1412.398438 522.28125 1408.976562 511.003906 C 1405.554688 499.730469 1401.859375 488.546875 1397.890625 477.453125 C 1393.917969 466.355469 1389.679688 455.367188 1385.167969 444.480469 C 1380.660156 433.597656 1375.886719 422.828125 1370.847656 412.175781 C 1365.808594 401.523438 1360.511719 391.003906 1354.957031 380.613281 C 1349.402344 370.222656 1343.59375 359.972656 1337.539062 349.867188 C 1331.480469 339.757812 1325.175781 329.808594 1318.628906 320.011719 C 1312.082031 310.214844 1305.300781 300.582031 1298.28125 291.121094 C 1291.261719 281.65625 1284.015625 272.371094 1276.539062 263.261719 C 1269.066406 254.152344 1261.371094 245.234375 1253.457031 236.503906 C 1245.542969 227.773438 1237.421875 219.242188 1229.089844 210.910156 C 1220.757812 202.578125 1212.226562 194.457031 1203.496094 186.542969 C 1194.765625 178.628906 1185.847656 170.933594 1176.738281 163.460938 C 1167.628906 155.984375 1158.34375 148.738281 1148.878906 141.71875 C 1139.417969 134.699219 1129.785156 127.917969 1119.988281 121.371094 C 1110.191406 114.824219 1100.242188 108.519531 1090.132812 102.460938 C 1080.027344 96.40625 1069.777344 90.597656 1059.386719 85.042969 C 1048.996094 79.488281 1038.476562 74.191406 1027.824219 69.152344 C 1017.171875 64.113281 1006.402344 59.339844 995.519531 54.832031 C 984.632812 50.320312 973.640625 46.082031 962.546875 42.109375 C 951.453125 38.140625 940.269531 34.445312 928.996094 31.023438 C 917.71875 27.601562 906.367188 24.460938 894.9375 21.59375 C 883.507812 18.730469 872.015625 16.148438 860.457031 13.847656 C 848.902344 11.550781 837.296875 9.535156 825.640625 7.804688 C 813.984375 6.074219 802.296875 4.632812 790.570312 3.476562 C 778.84375 2.320312 767.097656 1.449219 755.328125 0.871094 C 743.558594 0.292969 731.78125 0 720 0 Z M 720 270 C 724.257812 269.996094 728.515625 270.117188 732.769531 270.363281 C 737.019531 270.605469 741.261719 270.972656 745.492188 271.464844 C 749.726562 271.953125 753.9375 272.566406 758.132812 273.296875 C 762.332031 274.03125 766.5 274.886719 770.648438 275.859375 C 774.792969 276.835938 778.910156 277.929688 782.992188 279.140625 C 787.074219 280.355469 791.121094 281.683594 795.125 283.132812 C 799.132812 284.578125 803.09375 286.140625 807.007812 287.816406 C 810.925781 289.492188 814.789062 291.28125 818.601562 293.179688 C 822.414062 295.078125 826.167969 297.085938 829.863281 299.203125 C 833.5625 301.320312 837.191406 303.542969 840.761719 305.871094 C 844.328125 308.199219 847.824219 310.625 851.253906 313.15625 C 854.679688 315.683594 858.03125 318.3125 861.304688 321.035156 C 864.582031 323.757812 867.773438 326.574219 870.886719 329.480469 C 874 332.390625 877.023438 335.386719 879.964844 338.46875 C 882.902344 341.550781 885.75 344.71875 888.503906 347.964844 C 891.261719 351.214844 893.921875 354.539062 896.484375 357.941406 C 899.046875 361.34375 901.511719 364.816406 903.871094 368.359375 C 906.234375 371.90625 908.492188 375.515625 910.644531 379.191406 C 912.800781 382.863281 914.84375 386.597656 916.78125 390.390625 C 918.71875 394.183594 920.546875 398.03125 922.261719 401.929688 C 923.976562 405.828125 925.574219 409.773438 927.0625 413.765625 C 928.550781 417.757812 929.917969 421.789062 931.171875 425.859375 C 932.425781 429.933594 933.558594 434.035156 934.574219 438.171875 C 935.589844 442.308594 936.488281 446.472656 937.261719 450.660156 C 938.035156 454.847656 938.691406 459.054688 939.222656 463.28125 C 939.753906 467.507812 940.160156 471.746094 940.449219 475.996094 C 940.734375 480.246094 940.898438 484.5 940.9375 488.757812 C 940.976562 493.019531 940.894531 497.277344 940.6875 501.53125 C 940.480469 505.785156 940.152344 510.03125 939.699219 514.265625 C 939.25 518.5 938.675781 522.71875 937.980469 526.921875 C 937.285156 531.125 936.464844 535.300781 935.527344 539.457031 C 934.589844 543.613281 933.535156 547.738281 932.355469 551.832031 C 931.179688 555.925781 929.886719 559.980469 928.476562 564 C 927.066406 568.019531 925.539062 571.992188 923.898438 575.925781 C 922.257812 579.855469 920.503906 583.734375 918.636719 587.5625 C 916.773438 591.394531 914.796875 595.164062 912.710938 598.878906 C 910.628906 602.59375 908.4375 606.246094 906.144531 609.835938 C 903.847656 613.421875 901.453125 616.941406 898.953125 620.390625 C 896.453125 623.839844 893.859375 627.214844 891.164062 630.515625 C 888.46875 633.8125 885.683594 637.03125 882.800781 640.171875 C 879.921875 643.308594 876.953125 646.359375 873.894531 649.328125 C 870.839844 652.292969 867.699219 655.167969 864.476562 657.953125 C 861.253906 660.738281 857.953125 663.425781 854.574219 666.019531 C 851.195312 668.613281 847.742188 671.105469 844.21875 673.5 C 840.695312 675.894531 837.105469 678.183594 833.453125 680.371094 C 829.796875 682.558594 826.078125 684.636719 822.304688 686.605469 C 818.527344 688.578125 814.699219 690.4375 810.8125 692.1875 C 806.929688 693.9375 803 695.574219 799.019531 697.09375 C 795.042969 698.617188 791.023438 700.023438 786.964844 701.3125 C 782.90625 702.601562 778.8125 703.773438 774.683594 704.824219 C 770.558594 705.878906 766.402344 706.808594 762.222656 707.621094 C 758.039062 708.433594 753.839844 709.125 749.617188 709.695312 C 745.394531 710.265625 741.160156 710.710938 736.914062 711.035156 C 732.667969 711.359375 728.414062 711.558594 724.15625 711.636719 C 719.898438 711.714844 715.640625 711.671875 711.382812 711.503906 C 707.128906 711.335938 702.878906 711.042969 698.640625 710.628906 C 694.402344 710.214844 690.175781 709.679688 685.96875 709.019531 C 681.761719 708.359375 677.574219 707.582031 673.410156 706.679688 C 669.25 705.78125 665.113281 704.761719 661.011719 703.621094 C 656.90625 702.480469 652.839844 701.222656 648.808594 699.847656 C 644.777344 698.472656 640.789062 696.980469 636.84375 695.375 C 632.898438 693.769531 629.003906 692.050781 625.15625 690.21875 C 621.3125 688.386719 617.519531 686.445312 613.789062 684.394531 C 610.054688 682.34375 606.382812 680.1875 602.773438 677.925781 C 417.375 560.476562 497.699219 272.25 720 270 Z M 978.976562 1170 L 461.023438 1170 C 458.355469 1169.996094 455.683594 1169.925781 453.019531 1169.789062 C 450.351562 1169.652344 447.6875 1169.453125 445.03125 1169.183594 C 442.375 1168.917969 439.726562 1168.585938 437.085938 1168.191406 C 434.441406 1167.792969 431.8125 1167.332031 429.195312 1166.808594 C 426.578125 1166.285156 423.972656 1165.695312 421.382812 1165.042969 C 418.792969 1164.390625 416.222656 1163.671875 413.667969 1162.894531 C 411.113281 1162.113281 408.578125 1161.273438 406.066406 1160.371094 C 403.550781 1159.46875 401.0625 1158.503906 398.597656 1157.476562 C 396.128906 1156.453125 393.691406 1155.367188 391.277344 1154.222656 C 388.863281 1153.078125 386.480469 1151.875 384.128906 1150.613281 C 381.773438 1149.351562 379.453125 1148.035156 377.164062 1146.660156 C 374.875 1145.28125 372.621094 1143.851562 370.402344 1142.367188 C 368.179688 1140.878906 366 1139.339844 363.855469 1137.75 C 361.714844 1136.15625 359.609375 1134.511719 357.546875 1132.816406 C 355.484375 1131.117188 353.464844 1129.375 351.484375 1127.578125 C 349.507812 1125.785156 347.578125 1123.941406 345.6875 1122.050781 C 343.800781 1120.160156 341.960938 1118.226562 340.171875 1116.246094 C 338.378906 1114.265625 336.636719 1112.246094 334.941406 1110.179688 C 333.25 1108.113281 331.609375 1106.007812 330.019531 1103.863281 C 328.429688 1101.714844 326.890625 1099.535156 325.410156 1097.3125 C 323.925781 1095.089844 322.5 1092.835938 321.125 1090.542969 C 319.753906 1088.253906 318.4375 1085.929688 317.179688 1083.574219 C 315.921875 1081.21875 314.722656 1078.832031 313.582031 1076.417969 C 312.4375 1074.003906 311.355469 1071.5625 310.335938 1069.097656 C 309.3125 1066.628906 308.351562 1064.136719 307.453125 1061.625 C 306.554688 1059.109375 305.714844 1056.574219 304.941406 1054.019531 C 304.164062 1051.460938 303.453125 1048.890625 302.804688 1046.300781 C 302.152344 1043.707031 301.570312 1041.105469 301.046875 1038.484375 C 300.527344 1035.863281 300.070312 1033.234375 299.675781 1030.59375 C 299.285156 1027.953125 298.957031 1025.300781 298.691406 1022.644531 C 298.429688 1019.988281 298.234375 1017.324219 298.101562 1014.65625 C 297.96875 1011.988281 297.902344 1009.320312 297.898438 1006.648438 C 297.898438 868.273438 399.824219 748.800781 546.074219 695.023438 C 549.082031 697.570312 552.144531 700.046875 555.261719 702.457031 C 558.378906 704.867188 561.546875 707.207031 564.765625 709.480469 C 567.984375 711.75 571.253906 713.949219 574.570312 716.078125 C 577.882812 718.207031 581.246094 720.261719 584.652344 722.242188 C 588.058594 724.222656 591.503906 726.125 594.996094 727.953125 C 598.484375 729.785156 602.011719 731.535156 605.578125 733.210938 C 609.144531 734.882812 612.746094 736.480469 616.382812 737.996094 C 620.019531 739.511719 623.6875 740.945312 627.386719 742.300781 C 631.085938 743.65625 634.816406 744.929688 638.570312 746.121094 C 642.324219 747.3125 646.105469 748.421875 649.910156 749.445312 C 653.714844 750.472656 657.539062 751.414062 661.382812 752.269531 C 665.230469 753.128906 669.09375 753.902344 672.972656 754.589844 C 676.851562 755.277344 680.742188 755.878906 684.648438 756.398438 C 688.554688 756.914062 692.46875 757.347656 696.394531 757.691406 C 700.320312 758.035156 704.25 758.296875 708.1875 758.46875 C 712.121094 758.640625 716.058594 758.726562 720 758.726562 C 723.941406 758.726562 727.878906 758.640625 731.8125 758.46875 C 735.75 758.296875 739.679688 758.035156 743.605469 757.691406 C 747.53125 757.347656 751.445312 756.914062 755.351562 756.398438 C 759.257812 755.878906 763.148438 755.277344 767.027344 754.589844 C 770.90625 753.902344 774.769531 753.128906 778.617188 752.269531 C 782.460938 751.414062 786.285156 750.472656 790.089844 749.445312 C 793.894531 748.421875 797.675781 747.3125 801.429688 746.121094 C 805.183594 744.929688 808.914062 743.65625 812.613281 742.300781 C 816.3125 740.945312 819.980469 739.511719 823.617188 737.996094 C 827.253906 736.480469 830.855469 734.882812 834.421875 733.210938 C 837.988281 731.535156 841.515625 729.785156 845.003906 727.953125 C 848.496094 726.125 851.941406 724.222656 855.347656 722.242188 C 858.753906 720.261719 862.117188 718.207031 865.429688 716.078125 C 868.746094 713.949219 872.015625 711.75 875.234375 709.480469 C 878.453125 707.207031 881.621094 704.867188 884.738281 702.457031 C 887.855469 700.046875 890.917969 697.570312 893.925781 695.023438 C 1040.175781 748.800781 1142.101562 868.273438 1142.101562 1006.648438 C 1142.097656 1009.320312 1142.03125 1011.988281 1141.898438 1014.65625 C 1141.765625 1017.324219 1141.570312 1019.988281 1141.308594 1022.644531 C 1141.042969 1025.300781 1140.714844 1027.953125 1140.324219 1030.59375 C 1139.929688 1033.234375 1139.472656 1035.867188 1138.953125 1038.484375 C 1138.429688 1041.105469 1137.84375 1043.707031 1137.195312 1046.300781 C 1136.546875 1048.890625 1135.835938 1051.460938 1135.058594 1054.019531 C 1134.285156 1056.574219 1133.445312 1059.109375 1132.546875 1061.625 C 1131.648438 1064.136719 1130.6875 1066.628906 1129.664062 1069.097656 C 1128.644531 1071.5625 1127.5625 1074.003906 1126.417969 1076.417969 C 1125.277344 1078.832031 1124.078125 1081.21875 1122.820312 1083.574219 C 1121.5625 1085.929688 1120.246094 1088.253906 1118.875 1090.542969 C 1117.5 1092.835938 1116.074219 1095.089844 1114.589844 1097.3125 C 1113.109375 1099.53125 1111.570312 1101.714844 1109.980469 1103.863281 C 1108.390625 1106.007812 1106.75 1108.113281 1105.058594 1110.179688 C 1103.363281 1112.246094 1101.621094 1114.265625 1099.828125 1116.246094 C 1098.039062 1118.226562 1096.199219 1120.160156 1094.3125 1122.050781 C 1092.421875 1123.941406 1090.492188 1125.785156 1088.515625 1127.578125 C 1086.535156 1129.375 1084.515625 1131.121094 1082.453125 1132.816406 C 1080.390625 1134.511719 1078.285156 1136.15625 1076.144531 1137.75 C 1074 1139.339844 1071.816406 1140.878906 1069.597656 1142.367188 C 1067.378906 1143.851562 1065.125 1145.28125 1062.835938 1146.660156 C 1060.546875 1148.035156 1058.226562 1149.351562 1055.871094 1150.613281 C 1053.519531 1151.875 1051.136719 1153.078125 1048.722656 1154.222656 C 1046.308594 1155.367188 1043.871094 1156.453125 1041.402344 1157.476562 C 1038.9375 1158.503906 1036.449219 1159.46875 1033.933594 1160.371094 C 1031.421875 1161.273438 1028.886719 1162.113281 1026.332031 1162.894531 C 1023.777344 1163.671875 1021.207031 1164.390625 1018.617188 1165.042969 C 1016.027344 1165.695312 1013.421875 1166.285156 1010.804688 1166.808594 C 1008.1875 1167.335938 1005.558594 1167.792969 1002.914062 1168.191406 C 1000.273438 1168.585938 997.625 1168.917969 994.96875 1169.183594 C 992.3125 1169.453125 989.648438 1169.652344 986.980469 1169.789062 C 984.3125 1169.925781 981.644531 1169.996094 978.976562 1170 Z M 978.976562 1170 " fill-opacity="1" fill-rule="nonzero"/></svg>